<svg width="122" height="56" viewBox="0 0 122 56" fill="none" xmlns="http://www.w3.org/2000/svg">
<g clip-path="url(#clip0)">
<path d="M26.1332 27.0667H10.2666C9.75325 27.0667 9.33325 26.6467 9.33325 26.1333V10.2667C9.33325 9.75334 9.75325 9.33334 10.2666 9.33334H26.1332C26.6466 9.33334 27.0666 9.75334 27.0666 10.2667V26.1333C27.0666 26.6467 26.6466 27.0667 26.1332 27.0667Z" fill="#475364"/>
<path d="M45.7333 27.0667H29.8667C29.3533 27.0667 28.9333 26.6467 28.9333 26.1333V10.2667C28.9333 9.75334 29.3533 9.33334 29.8667 9.33334H45.7333C46.2467 9.33334 46.6667 9.75334 46.6667 10.2667V26.1333C46.6667 26.6467 46.2467 27.0667 45.7333 27.0667Z" fill="#72BF44"/>
<path d="M26.1332 46.6667H10.2666C9.75325 46.6667 9.33325 46.2467 9.33325 45.7333V29.8667C9.33325 29.3533 9.75325 28.9333 10.2666 28.9333H26.1332C26.6466 28.9333 27.0666 29.3533 27.0666 29.8667V45.7333C27.0666 46.2467 26.6466 46.6667 26.1332 46.6667Z" fill="#ED1C24"/>
</g>
<path d="M80.5234 28.8984V26.9883H73.3984V29.5664H77.0781L77.0664 29.8359C76.9961 31.9336 75.3906 33.3516 73.082 33.3516C70.2695 33.3516 68.4883 31.1133 68.4883 27.4453C68.4883 23.8477 70.1641 21.7266 72.9531 21.7266C74.8633 21.7266 76.3047 22.7812 76.8203 24.5508H80.3711C79.8672 21.1289 76.8906 18.7969 72.9414 18.7969C67.9727 18.7969 64.8789 22.0781 64.8789 27.4922C64.8789 32.9883 67.9727 36.293 73.0234 36.293C77.7344 36.293 80.5234 33.5039 80.5234 28.8984ZM94.6914 36H98.5234L95.3711 32.707C96.2852 31.4414 96.8008 29.6602 96.8008 27.5977V26.5078H93.9531V27.3984C93.9531 28.8516 93.7539 29.8711 93.3438 30.5977L90.1328 27.1289C92.4766 25.8516 93.5547 24.4688 93.5547 22.7344C93.5547 20.4609 91.6094 18.8672 88.8438 18.8672C86.0898 18.8672 84.0508 20.5312 84.0508 22.793C84.0508 24.0352 84.625 25.0898 86.1484 26.6602C86.1016 26.6836 85.5625 26.9766 85.3867 27.0703C83.2305 28.2539 82.2578 29.6484 82.2578 31.5703C82.2578 34.4414 84.5664 36.3047 88.1523 36.3047C90.2031 36.3047 92.1367 35.6719 93.3906 34.5938L94.6914 36ZM87.25 28.6992C87.3555 28.6406 87.5898 28.5117 87.7188 28.4531L91.5977 32.6484C90.9414 33.3633 89.7227 33.8203 88.5039 33.8203C86.6875 33.8203 85.457 32.8125 85.457 31.3008C85.457 30.2578 85.9727 29.5078 87.25 28.6992ZM88.5508 25.5352C87.4023 24.4219 86.9805 23.7539 86.9805 22.9688C86.9805 21.9141 87.7656 21.1406 88.8555 21.1406C89.957 21.1406 90.707 21.8906 90.707 22.9688C90.707 23.9883 90.0859 24.7383 88.5508 25.5352ZM103.562 21.8555H106.574C108.332 21.8555 109.434 22.9102 109.434 24.5508C109.434 26.2266 108.391 27.2461 106.609 27.2461H103.562V21.8555ZM103.562 29.8125H106.398L109.551 36H113.559L109.996 29.2852C111.941 28.5234 113.066 26.6484 113.066 24.4805C113.066 21.1406 110.84 19.0898 106.949 19.0898H100.023V36H103.562V29.8125Z" fill="#475364"/>
<defs>
<clipPath id="clip0">
<rect width="56" height="56" fill="white"/>
</clipPath>
</defs>
</svg>
