<?xml version="1.0" encoding="utf-8"?>
<!-- Generator: Adobe Illustrator 18.1.1, SVG Export Plug-In . SVG Version: 6.00 Build 0)  -->
<svg version="1.1" id="Layer_1" xmlns="http://www.w3.org/2000/svg" xmlns:xlink="http://www.w3.org/1999/xlink" x="0px" y="0px"
	 viewBox="0 0 117.8 36.3" enable-background="new 0 0 117.8 36.3" xml:space="preserve">
<g id="_x2E_svg_4_">
	<g>
		<path fill="#999999" d="M41.1,24.4h10.4v3.2H37.2V4.7h4V24.4z"/>
		<path fill="#999999" d="M71.9,16.7c0,2.2-0.4,4.2-1.2,5.9c-0.8,1.7-1.9,3-3.3,3.9c-1.4,0.9-3.1,1.4-5,1.4c-1.9,0-3.5-0.5-5-1.4
			c-1.5-0.9-2.6-2.2-3.4-3.9c-0.8-1.7-1.2-3.6-1.2-5.8v-1.3c0-2.2,0.4-4.2,1.2-5.9c0.8-1.7,1.9-3,3.4-3.9c1.4-0.9,3.1-1.4,5-1.4
			s3.5,0.4,5,1.3c1.4,0.9,2.6,2.2,3.3,3.9c0.8,1.7,1.2,3.6,1.2,5.9V16.7z M67.9,15.5c0-2.5-0.5-4.5-1.4-5.8c-1-1.4-2.3-2-4.1-2
			c-1.7,0-3.1,0.7-4,2c-1,1.3-1.5,3.3-1.5,5.7v1.3c0,2.5,0.5,4.5,1.5,5.8c1,1.4,2.3,2.1,4.1,2.1c1.8,0,3.1-0.7,4.1-2
			c1-1.3,1.4-3.3,1.4-5.9V15.5z"/>
		<path fill="#999999" d="M93.5,24.6c-0.8,1.1-2,1.9-3.4,2.5c-1.5,0.6-3.1,0.8-5,0.8c-1.9,0-3.6-0.4-5.1-1.3s-2.6-2.1-3.4-3.7
			c-0.8-1.6-1.2-3.5-1.3-5.7v-1.8c0-3.5,0.8-6.2,2.5-8.1c1.7-1.9,4-2.9,6.9-2.9c2.6,0,4.6,0.6,6.1,1.9c1.5,1.3,2.4,3.1,2.7,5.5h-3.9
			c-0.4-2.8-2-4.1-4.8-4.1c-1.8,0-3.1,0.6-4.1,1.9c-0.9,1.3-1.4,3.2-1.4,5.6v1.8c0,2.5,0.5,4.4,1.6,5.8c1,1.4,2.5,2,4.4,2
			c2,0,3.5-0.5,4.3-1.4v-4.5h-4.7v-3h8.7V24.6z"/>
		<path fill="#999999" d="M116.1,16.7c0,2.2-0.4,4.2-1.2,5.9c-0.8,1.7-1.9,3-3.3,3.9c-1.4,0.9-3.1,1.4-5,1.4c-1.9,0-3.5-0.5-5-1.4
			c-1.5-0.9-2.6-2.2-3.4-3.9c-0.8-1.7-1.2-3.6-1.2-5.8v-1.3c0-2.2,0.4-4.2,1.2-5.9c0.8-1.7,1.9-3,3.4-3.9s3.1-1.4,5-1.4
			s3.5,0.4,5,1.3c1.4,0.9,2.6,2.2,3.3,3.9s1.2,3.6,1.2,5.9V16.7z M112.1,15.5c0-2.5-0.5-4.5-1.4-5.8c-1-1.4-2.3-2-4.1-2
			c-1.7,0-3.1,0.7-4,2c-1,1.3-1.5,3.3-1.5,5.7v1.3c0,2.5,0.5,4.5,1.5,5.8c1,1.4,2.3,2.1,4.1,2.1c1.8,0,3.1-0.7,4.1-2
			c0.9-1.3,1.4-3.3,1.4-5.9V15.5z"/>
	</g>
	<g>
		<path fill="none" stroke="#000000" stroke-width="4.4747" stroke-miterlimit="10" d="M2.2,16.1"/>
		<path fill="none" stroke="#000000" stroke-width="4.4747" stroke-miterlimit="10" d="M26.6,16.1"/>
		<path fill="none" stroke="#4480F6" stroke-width="4.4747" stroke-miterlimit="10" d="M2.2,16.1c0-6.7,5.5-12.2,12.2-12.2"/>
		<path fill="none" stroke="#DB4534" stroke-width="4.4747" stroke-miterlimit="10" d="M14.4,3.9c6.7,0,12.2,5.5,12.2,12.2"/>
		<path fill="none" stroke="#CCCCCC" stroke-width="4.4747" stroke-miterlimit="10" d="M26.6,16.1c0,6.7-5.5,12.2-12.2,12.2"/>
		<path fill="none" stroke="#F3B500" stroke-width="4.4747" stroke-miterlimit="10" d="M14.4,28.3c-6.7,0-12.2-5.5-12.2-12.2"/>
	</g>
</g>
<g>
</g>
<g>
</g>
<g>
</g>
<g>
</g>
<g>
</g>
<g>
</g>
<g>
</g>
<g>
</g>
<g>
</g>
<g>
</g>
<g>
</g>
<g>
</g>
<g>
</g>
<g>
</g>
<g>
</g>
</svg>
